TITLE ""
FILE "LR_black_phrase_C07.mp3" MP3
  TRACK 01 AUDIO
    TITLE "LR_black_phrase_C07_001"
    INDEX 01 00:00:00
  TRACK 02 AUDIO
    TITLE "LR_black_phrase_C07_002"
    INDEX 01 00:00:14
  TRACK 03 AUDIO
    TITLE "LR_black_phrase_C07_003"
    INDEX 01 00:01:53
  TRACK 04 AUDIO
    TITLE "LR_black_phrase_C07_004"
    INDEX 01 00:02:13
  TRACK 05 AUDIO
    TITLE "LR_black_phrase_C07_005"
    INDEX 01 00:04:65
  TRACK 06 AUDIO
    TITLE "LR_black_phrase_C07_006"
    INDEX 01 00:05:64
  TRACK 07 AUDIO
    TITLE "LR_black_phrase_C07_007"
    INDEX 01 00:07:69
  TRACK 08 AUDIO
    TITLE "LR_black_phrase_C07_008"
    INDEX 01 00:08:33
  TRACK 09 AUDIO
    TITLE "LR_black_phrase_C07_009"
    INDEX 01 00:10:42
  TRACK 10 AUDIO
    TITLE "LR_black_phrase_C07_010"
    INDEX 01 00:10:73
  TRACK 11 AUDIO
    TITLE "LR_black_phrase_C07_011"
    INDEX 01 00:13:07
  TRACK 12 AUDIO
    TITLE "LR_black_phrase_C07_012"
    INDEX 01 00:14:12
  TRACK 13 AUDIO
    TITLE "LR_black_phrase_C07_013"
    INDEX 01 00:15:29
  TRACK 14 AUDIO
    TITLE "LR_black_phrase_C07_014"
    INDEX 01 00:15:71
  TRACK 15 AUDIO
    TITLE "LR_black_phrase_C07_015"
    INDEX 01 00:18:59
  TRACK 16 AUDIO
    TITLE "LR_black_phrase_C07_016"
    INDEX 01 00:19:59
  TRACK 17 AUDIO
    TITLE "LR_black_phrase_C07_017"
    INDEX 01 00:21:73
  TRACK 18 AUDIO
    TITLE "LR_black_phrase_C07_018"
    INDEX 01 00:22:39
  TRACK 19 AUDIO
    TITLE "LR_black_phrase_C07_019"
    INDEX 01 00:24:30
  TRACK 20 AUDIO
    TITLE "LR_black_phrase_C07_020"
    INDEX 01 00:24:60
  TRACK 21 AUDIO
    TITLE "LR_black_phrase_C07_021"
    INDEX 01 00:26:47
  TRACK 22 AUDIO
    TITLE "LR_black_phrase_C07_022"
    INDEX 01 00:27:44
  TRACK 23 AUDIO
    TITLE "LR_black_phrase_C07_023"
    INDEX 01 00:28:61
  TRACK 24 AUDIO
    TITLE "LR_black_phrase_C07_024"
    INDEX 01 00:29:24
  TRACK 25 AUDIO
    TITLE "LR_black_phrase_C07_025"
    INDEX 01 00:32:14
  TRACK 26 AUDIO
    TITLE "LR_black_phrase_C07_026"
    INDEX 01 00:33:12
  TRACK 27 AUDIO
    TITLE "LR_black_phrase_C07_027"
    INDEX 01 00:37:08
  TRACK 28 AUDIO
    TITLE "LR_black_phrase_C07_028"
    INDEX 01 00:37:39
  TRACK 29 AUDIO
    TITLE "LR_black_phrase_C07_029"
    INDEX 01 00:41:15
  TRACK 30 AUDIO
    TITLE "LR_black_phrase_C07_030"
    INDEX 01 00:41:41
  TRACK 31 AUDIO
    TITLE "LR_black_phrase_C07_031"
    INDEX 01 00:45:13
  TRACK 32 AUDIO
    TITLE "LR_black_phrase_C07_032"
    INDEX 01 00:46:08
  TRACK 33 AUDIO
    TITLE "LR_black_phrase_C07_033"
    INDEX 01 00:47:29
  TRACK 34 AUDIO
    TITLE "LR_black_phrase_C07_034"
    INDEX 01 00:47:65
  TRACK 35 AUDIO
    TITLE "LR_black_phrase_C07_035"
    INDEX 01 00:50:51
  TRACK 36 AUDIO
    TITLE "LR_black_phrase_C07_036"
    INDEX 01 00:51:51
  TRACK 37 AUDIO
    TITLE "LR_black_phrase_C07_037"
    INDEX 01 00:53:32
  TRACK 38 AUDIO
    TITLE "LR_black_phrase_C07_038"
    INDEX 01 00:53:65
  TRACK 39 AUDIO
    TITLE "LR_black_phrase_C07_039"
    INDEX 01 00:55:45
  TRACK 40 AUDIO
    TITLE "LR_black_phrase_C07_040"
    INDEX 01 00:55:70
  TRACK 41 AUDIO
    TITLE "LR_black_phrase_C07_041"
    INDEX 01 00:57:53
  TRACK 42 AUDIO
    TITLE "LR_black_phrase_C07_042"
    INDEX 01 00:58:55
  TRACK 43 AUDIO
    TITLE "LR_black_phrase_C07_043"
    INDEX 01 01:00:03
  TRACK 44 AUDIO
    TITLE "LR_black_phrase_C07_044"
    INDEX 01 01:00:42
  TRACK 45 AUDIO
    TITLE "LR_black_phrase_C07_045"
    INDEX 01 01:01:43
  TRACK 46 AUDIO
    TITLE "LR_black_phrase_C07_046"
    INDEX 01 01:02:43
  TRACK 47 AUDIO
    TITLE "LR_black_phrase_C07_047"
    INDEX 01 01:05:16
  TRACK 48 AUDIO
    TITLE "LR_black_phrase_C07_048"
    INDEX 01 01:05:59
  TRACK 49 AUDIO
    TITLE "LR_black_phrase_C07_049"
    INDEX 01 01:08:63
  TRACK 50 AUDIO
    TITLE "LR_black_phrase_C07_050"
    INDEX 01 01:09:15
  TRACK 51 AUDIO
    TITLE "LR_black_phrase_C07_051"
    INDEX 01 01:12:18
  TRACK 52 AUDIO
    TITLE "LR_black_phrase_C07_052"
    INDEX 01 01:13:19
  TRACK 53 AUDIO
    TITLE "LR_black_phrase_C07_053"
    INDEX 01 01:14:44
  TRACK 54 AUDIO
    TITLE "LR_black_phrase_C07_054"
    INDEX 01 01:15:04
  TRACK 55 AUDIO
    TITLE "LR_black_phrase_C07_055"
    INDEX 01 01:17:33
  TRACK 56 AUDIO
    TITLE "LR_black_phrase_C07_056"
    INDEX 01 01:18:32
  TRACK 57 AUDIO
    TITLE "LR_black_phrase_C07_057"
    INDEX 01 01:20:19
  TRACK 58 AUDIO
    TITLE "LR_black_phrase_C07_058"
    INDEX 01 01:20:60
  TRACK 59 AUDIO
    TITLE "LR_black_phrase_C07_059"
    INDEX 01 01:22:42
  TRACK 60 AUDIO
    TITLE "LR_black_phrase_C07_060"
    INDEX 01 01:22:69
  TRACK 61 AUDIO
    TITLE "LR_black_phrase_C07_061"
    INDEX 01 01:24:52
  TRACK 62 AUDIO
    TITLE "LR_black_phrase_C07_062"
    INDEX 01 01:25:50
  TRACK 63 AUDIO
    TITLE "LR_black_phrase_C07_063"
    INDEX 01 01:26:73
  TRACK 64 AUDIO
    TITLE "LR_black_phrase_C07_064"
    INDEX 01 01:27:33
  TRACK 65 AUDIO
    TITLE "LR_black_phrase_C07_065"
    INDEX 01 01:29:04
  TRACK 66 AUDIO
    TITLE "LR_black_phrase_C07_066"
    INDEX 01 01:30:04
  TRACK 67 AUDIO
    TITLE "LR_black_phrase_C07_067"
    INDEX 01 01:32:52
  TRACK 68 AUDIO
    TITLE "LR_black_phrase_C07_068"
    INDEX 01 01:33:20
  TRACK 69 AUDIO
    TITLE "LR_black_phrase_C07_069"
    INDEX 01 01:35:50
  TRACK 70 AUDIO
    TITLE "LR_black_phrase_C07_070"
    INDEX 01 01:36:01
  TRACK 71 AUDIO
    TITLE "LR_black_phrase_C07_071"
    INDEX 01 01:38:33
  TRACK 72 AUDIO
    TITLE "LR_black_phrase_C07_072"
    INDEX 01 01:39:26
  TRACK 73 AUDIO
    TITLE "LR_black_phrase_C07_073"
    INDEX 01 01:40:30
  TRACK 74 AUDIO
    TITLE "LR_black_phrase_C07_074"
    INDEX 01 01:40:67
  TRACK 75 AUDIO
    TITLE "LR_black_phrase_C07_075"
    INDEX 01 01:42:01
  TRACK 76 AUDIO
    TITLE "LR_black_phrase_C07_076"
    INDEX 01 01:43:03
  TRACK 77 AUDIO
    TITLE "LR_black_phrase_C07_077"
    INDEX 01 01:45:35
  TRACK 78 AUDIO
    TITLE "LR_black_phrase_C07_078"
    INDEX 01 01:45:72
  TRACK 79 AUDIO
    TITLE "LR_black_phrase_C07_079"
    INDEX 01 01:47:55
  TRACK 80 AUDIO
    TITLE "LR_black_phrase_C07_080"
    INDEX 01 01:48:10
  TRACK 81 AUDIO
    TITLE "LR_black_phrase_C07_081"
    INDEX 01 01:49:66
  TRACK 82 AUDIO
    TITLE "LR_black_phrase_C07_082"
    INDEX 01 01:50:71
  TRACK 83 AUDIO
    TITLE "LR_black_phrase_C07_083"
    INDEX 01 01:52:37
  TRACK 84 AUDIO
    TITLE "LR_black_phrase_C07_084"
    INDEX 01 01:52:74
  TRACK 85 AUDIO
    TITLE "LR_black_phrase_C07_085"
    INDEX 01 01:54:22
  TRACK 86 AUDIO
    TITLE "LR_black_phrase_C07_086"
    INDEX 01 01:55:19
  TRACK 87 AUDIO
    TITLE "LR_black_phrase_C07_087"
    INDEX 01 01:57:44
  TRACK 88 AUDIO
    TITLE "LR_black_phrase_C07_088"
    INDEX 01 01:58:08
  TRACK 89 AUDIO
    TITLE "LR_black_phrase_C07_089"
    INDEX 01 02:00:32
  TRACK 90 AUDIO
    TITLE "LR_black_phrase_C07_090"
    INDEX 01 02:00:62
  TRACK 91 AUDIO
    TITLE "LR_black_phrase_C07_091"
    INDEX 01 02:03:13
  TRACK 92 AUDIO
    TITLE "LR_black_phrase_C07_092"
    INDEX 01 02:04:16
  TRACK 93 AUDIO
    TITLE "LR_black_phrase_C07_093"
    INDEX 01 02:05:39
  TRACK 94 AUDIO
    TITLE "LR_black_phrase_C07_094"
    INDEX 01 02:06:04
  TRACK 95 AUDIO
    TITLE "LR_black_phrase_C07_095"
    INDEX 01 02:08:42
  TRACK 96 AUDIO
    TITLE "LR_black_phrase_C07_096"
    INDEX 01 02:09:41
  TRACK 97 AUDIO
    TITLE "LR_black_phrase_C07_097"
    INDEX 01 02:11:32
  TRACK 98 AUDIO
    TITLE "LR_black_phrase_C07_098"
    INDEX 01 02:11:69
  TRACK 99 AUDIO
    TITLE "LR_black_phrase_C07_099"
    INDEX 01 02:13:66
  TRACK 100 AUDIO
    TITLE "LR_black_phrase_C07_100"
    INDEX 01 02:14:25
  TRACK 101 AUDIO
    TITLE "LR_black_phrase_C07_101"
    INDEX 01 02:16:24
  TRACK 102 AUDIO
    TITLE "LR_black_phrase_C07_102"
    INDEX 01 02:17:25
  TRACK 103 AUDIO
    TITLE "LR_black_phrase_C07_103"
    INDEX 01 02:18:32
  TRACK 104 AUDIO
    TITLE "LR_black_phrase_C07_104"
    INDEX 01 02:18:64
  TRACK 105 AUDIO
    TITLE "LR_black_phrase_C07_105"
    INDEX 01 02:22:22
  TRACK 106 AUDIO
    TITLE "LR_black_phrase_C07_106"
    INDEX 01 02:23:20
  TRACK 107 AUDIO
    TITLE "LR_black_phrase_C07_107"
    INDEX 01 02:26:16
  TRACK 108 AUDIO
    TITLE "LR_black_phrase_C07_108"
    INDEX 01 02:26:47
  TRACK 109 AUDIO
    TITLE "LR_black_phrase_C07_109"
    INDEX 01 02:29:56
  TRACK 110 AUDIO
    TITLE "LR_black_phrase_C07_110"
    INDEX 01 02:29:69
  TRACK 111 AUDIO
    TITLE "LR_black_phrase_C07_111"
    INDEX 01 02:33:02
  TRACK 112 AUDIO
    TITLE "LR_black_phrase_C07_112"
    INDEX 01 02:33:69
  TRACK 113 AUDIO
    TITLE "LR_black_phrase_C07_113"
    INDEX 01 02:35:17
  TRACK 114 AUDIO
    TITLE "LR_black_phrase_C07_114"
    INDEX 01 02:35:52
  TRACK 115 AUDIO
    TITLE "LR_black_phrase_C07_115"
    INDEX 01 02:39:38
  TRACK 116 AUDIO
    TITLE "LR_black_phrase_C07_116"
    INDEX 01 02:40:38
  TRACK 117 AUDIO
    TITLE "LR_black_phrase_C07_117"
    INDEX 01 02:42:54
  TRACK 118 AUDIO
    TITLE "LR_black_phrase_C07_118"
    INDEX 01 02:43:13
  TRACK 119 AUDIO
    TITLE "LR_black_phrase_C07_119"
    INDEX 01 02:45:64
  TRACK 120 AUDIO
    TITLE "LR_black_phrase_C07_120"
    INDEX 01 02:46:15
  TRACK 121 AUDIO
    TITLE "LR_black_phrase_C07_121"
    INDEX 01 02:48:57
  TRACK 122 AUDIO
    TITLE "LR_black_phrase_C07_122"
    INDEX 01 02:49:72
  TRACK 123 AUDIO
    TITLE "LR_black_phrase_C07_123"
    INDEX 01 02:51:18
  TRACK 124 AUDIO
    TITLE "LR_black_phrase_C07_124"
    INDEX 01 02:51:57
  TRACK 125 AUDIO
    TITLE "LR_black_phrase_C07_125"
    INDEX 01 02:54:16
  TRACK 126 AUDIO
    TITLE "LR_black_phrase_C07_126"
    INDEX 01 02:55:14
  TRACK 127 AUDIO
    TITLE "LR_black_phrase_C07_127"
    INDEX 01 02:56:74
  TRACK 128 AUDIO
    TITLE "LR_black_phrase_C07_128"
    INDEX 01 02:57:40
  TRACK 129 AUDIO
    TITLE "LR_black_phrase_C07_129"
    INDEX 01 02:59:37
  TRACK 130 AUDIO
    TITLE "LR_black_phrase_C07_130"
    INDEX 01 02:59:64
  TRACK 131 AUDIO
    TITLE "LR_black_phrase_C07_131"
    INDEX 01 03:01:61
  TRACK 132 AUDIO
    TITLE "LR_black_phrase_C07_132"
    INDEX 01 03:02:65
  TRACK 133 AUDIO
    TITLE "LR_black_phrase_C07_133"
    INDEX 01 03:04:01
  TRACK 134 AUDIO
    TITLE "LR_black_phrase_C07_134"
    INDEX 01 03:04:40
  TRACK 135 AUDIO
    TITLE "LR_black_phrase_C07_135"
    INDEX 01 03:05:59
  TRACK 136 AUDIO
    TITLE "LR_black_phrase_C07_136"
    INDEX 01 03:06:57
  TRACK 137 AUDIO
    TITLE "LR_black_phrase_C07_137"
    INDEX 01 03:09:39
  TRACK 138 AUDIO
    TITLE "LR_black_phrase_C07_138"
    INDEX 01 03:10:06
  TRACK 139 AUDIO
    TITLE "LR_black_phrase_C07_139"
    INDEX 01 03:12:12
  TRACK 140 AUDIO
    TITLE "LR_black_phrase_C07_140"
    INDEX 01 03:12:42
  TRACK 141 AUDIO
    TITLE "LR_black_phrase_C07_141"
    INDEX 01 03:14:50
  TRACK 142 AUDIO
    TITLE "LR_black_phrase_C07_142"
    INDEX 01 03:15:52
  TRACK 143 AUDIO
    TITLE "LR_black_phrase_C07_143"
    INDEX 01 03:16:59
  TRACK 144 AUDIO
    TITLE "LR_black_phrase_C07_144"
    INDEX 01 03:17:19
  TRACK 145 AUDIO
    TITLE "LR_black_phrase_C07_145"
    INDEX 01 03:20:74
  TRACK 146 AUDIO
    TITLE "LR_black_phrase_C07_146"
    INDEX 01 03:22:01
  TRACK 147 AUDIO
    TITLE "LR_black_phrase_C07_147"
    INDEX 01 03:23:59
  TRACK 148 AUDIO
    TITLE "LR_black_phrase_C07_148"
    INDEX 01 03:24:17
  TRACK 149 AUDIO
    TITLE "LR_black_phrase_C07_149"
    INDEX 01 03:26:16
  TRACK 150 AUDIO
    TITLE "LR_black_phrase_C07_150"
    INDEX 01 03:26:40
  TRACK 151 AUDIO
    TITLE "LR_black_phrase_C07_151"
    INDEX 01 03:28:39
  TRACK 152 AUDIO
    TITLE "LR_black_phrase_C07_152"
    INDEX 01 03:29:38
  TRACK 153 AUDIO
    TITLE "LR_black_phrase_C07_153"
    INDEX 01 03:31:04
  TRACK 154 AUDIO
    TITLE "LR_black_phrase_C07_154"
    INDEX 01 03:31:39
  TRACK 155 AUDIO
    TITLE "LR_black_phrase_C07_155"
    INDEX 01 03:33:52
  TRACK 156 AUDIO
    TITLE "LR_black_phrase_C07_156"
    INDEX 01 03:34:49
  TRACK 157 AUDIO
    TITLE "LR_black_phrase_C07_157"
    INDEX 01 03:36:72
  TRACK 158 AUDIO
    TITLE "LR_black_phrase_C07_158"
    INDEX 01 03:37:32
  TRACK 159 AUDIO
    TITLE "LR_black_phrase_C07_159"
    INDEX 01 03:40:16
  TRACK 160 AUDIO
    TITLE "LR_black_phrase_C07_160"
    INDEX 01 03:40:38
  TRACK 161 AUDIO
    TITLE "LR_black_phrase_C07_161"
    INDEX 01 03:43:21
  TRACK 162 AUDIO
    TITLE "LR_black_phrase_C07_162"
    INDEX 01 03:44:24
  TRACK 163 AUDIO
    TITLE "LR_black_phrase_C07_163"
    INDEX 01 03:45:25
  TRACK 164 AUDIO
    TITLE "LR_black_phrase_C07_164"
    INDEX 01 03:45:65
  TRACK 165 AUDIO
    TITLE "LR_black_phrase_C07_165"
    INDEX 01 03:47:07
  TRACK 166 AUDIO
    TITLE "LR_black_phrase_C07_166"
    INDEX 01 03:48:04
  TRACK 167 AUDIO
    TITLE "LR_black_phrase_C07_167"
    INDEX 01 03:49:47
  TRACK 168 AUDIO
    TITLE "LR_black_phrase_C07_168"
    INDEX 01 03:50:13
  TRACK 169 AUDIO
    TITLE "LR_black_phrase_C07_169"
    INDEX 01 03:51:59
  TRACK 170 AUDIO
    TITLE "LR_black_phrase_C07_170"
    INDEX 01 03:52:12
  TRACK 171 AUDIO
    TITLE "LR_black_phrase_C07_171"
    INDEX 01 03:53:60
  TRACK 172 AUDIO
    TITLE "LR_black_phrase_C07_172"
    INDEX 01 03:54:62
  TRACK 173 AUDIO
    TITLE "LR_black_phrase_C07_173"
    INDEX 01 03:56:17
  TRACK 174 AUDIO
    TITLE "LR_black_phrase_C07_174"
    INDEX 01 03:56:57
  TRACK 175 AUDIO
    TITLE "LR_black_phrase_C07_175"
    INDEX 01 03:58:20
  TRACK 176 AUDIO
    TITLE "LR_black_phrase_C07_176"
    INDEX 01 03:59:22
  TRACK 177 AUDIO
    TITLE "LR_black_phrase_C07_177"
    INDEX 01 04:01:26
  TRACK 178 AUDIO
    TITLE "LR_black_phrase_C07_178"
    INDEX 01 04:01:68
  TRACK 179 AUDIO
    TITLE "LR_black_phrase_C07_179"
    INDEX 01 04:03:63
  TRACK 180 AUDIO
    TITLE "LR_black_phrase_C07_180"
    INDEX 01 04:04:17
  TRACK 181 AUDIO
    TITLE "LR_black_phrase_C07_181"
    INDEX 01 04:06:14
  TRACK 182 AUDIO
    TITLE "LR_black_phrase_C07_182"
    INDEX 01 04:07:11
  TRACK 183 AUDIO
    TITLE "LR_black_phrase_C07_183"
    INDEX 01 04:08:30
  TRACK 184 AUDIO
    TITLE "LR_black_phrase_C07_184"
    INDEX 01 04:08:68
  TRACK 185 AUDIO
    TITLE "LR_black_phrase_C07_185"
    INDEX 01 04:10:08
  TRACK 186 AUDIO
    TITLE "LR_black_phrase_C07_186"
    INDEX 01 04:11:07
  TRACK 187 AUDIO
    TITLE "LR_black_phrase_C07_187"
    INDEX 01 04:12:60
  TRACK 188 AUDIO
    TITLE "LR_black_phrase_C07_188"
    INDEX 01 04:13:20
  TRACK 189 AUDIO
    TITLE "LR_black_phrase_C07_189"
    INDEX 01 04:14:70
  TRACK 190 AUDIO
    TITLE "LR_black_phrase_C07_190"
    INDEX 01 04:15:17
  TRACK 191 AUDIO
    TITLE "LR_black_phrase_C07_191"
    INDEX 01 04:16:71
  TRACK 192 AUDIO
    TITLE "LR_black_phrase_C07_192"
    INDEX 01 04:17:67
  TRACK 193 AUDIO
    TITLE "LR_black_phrase_C07_193"
    INDEX 01 04:19:07
  TRACK 194 AUDIO
    TITLE "LR_black_phrase_C07_194"
    INDEX 01 04:19:42
  TRACK 195 AUDIO
    TITLE "LR_black_phrase_C07_195"
    INDEX 01 04:22:74
  TRACK 196 AUDIO
    TITLE "LR_black_phrase_C07_196"
    INDEX 01 04:23:75
  TRACK 197 AUDIO
    TITLE "LR_black_phrase_C07_197"
    INDEX 01 04:26:07
  TRACK 198 AUDIO
    TITLE "LR_black_phrase_C07_198"
    INDEX 01 04:26:40
  TRACK 199 AUDIO
    TITLE "LR_black_phrase_C07_199"
    INDEX 01 04:28:39
  TRACK 200 AUDIO
    TITLE "LR_black_phrase_C07_200"
    INDEX 01 04:28:62
  TRACK 201 AUDIO
    TITLE "LR_black_phrase_C07_201"
    INDEX 01 04:30:61
